<?xml version="1.0" standalone="no"?>
<!DOCTYPE svg PUBLIC "-//W3C//DTD SVG 20010904//EN"
 "http://www.w3.org/TR/2001/REC-SVG-20010904/DTD/svg10.dtd">
<svg version="1.0" xmlns="http://www.w3.org/2000/svg"
 width="16.000000pt" height="16.000000pt" viewBox="0 0 16.000000 16.000000"
 preserveAspectRatio="xMidYMid meet">
<metadata>
Created by potrace 1.11, written by Peter Selinger 2001-2013
</metadata>
<g transform="translate(0.000000,16.000000) scale(0.003125,-0.003125)"
fill="#000000" stroke="none">
<path d="M2420 5080 c0 -3 -21 -6 -47 -6 -55 -2 -158 -11 -158 -14 0 -2 -11
-4 -25 -5 -30 -3 -86 -12 -120 -20 -14 -3 -36 -7 -50 -10 -148 -29 -373 -107
-545 -189 -129 -61 -344 -188 -353 -208 -2 -5 -9 -8 -16 -8 -7 0 -23 -10 -36
-22 -13 -13 -45 -38 -71 -58 -96 -72 -249 -218 -331 -314 -18 -22 -41 -47 -50
-55 -10 -9 -18 -19 -18 -23 0 -4 -16 -24 -35 -45 -19 -21 -35 -44 -35 -50 0
-7 -4 -13 -8 -13 -4 0 -16 -15 -27 -32 -10 -18 -22 -35 -26 -38 -13 -9 -131
-212 -173 -300 -74 -151 -140 -328 -172 -455 -29 -120 -42 -178 -49 -220 -21
-141 -26 -176 -29 -223 -2 -29 -6 -56 -10 -59 -3 -3 -1 -12 5 -20 6 -7 8 -13
3 -13 -7 0 -11 -230 -5 -250 1 -3 4 -34 6 -70 4 -62 7 -86 20 -175 3 -22 8
-53 10 -70 7 -48 15 -86 32 -150 8 -33 16 -67 18 -75 2 -8 14 -46 26 -85 12
-38 23 -74 25 -80 1 -5 12 -35 24 -65 32 -80 37 -94 39 -102 1 -5 33 -69 71
-144 64 -125 207 -351 262 -416 13 -15 34 -42 48 -60 43 -56 271 -281 350
-344 41 -33 104 -80 140 -105 36 -24 67 -46 70 -49 22 -24 360 -205 360 -193
0 3 9 -2 20 -12 11 -10 20 -15 20 -11 0 3 12 0 27 -7 16 -8 64 -26 108 -41 44
-15 89 -31 100 -36 11 -5 31 -11 45 -13 14 -3 70 -17 125 -30 108 -27 155 -37
225 -44 91 -10 106 -12 150 -18 47 -6 336 -7 405 -1 22 2 65 7 95 11 30 4 66
9 80 10 46 6 105 16 125 22 11 3 29 7 40 8 11 2 54 13 95 25 41 12 83 24 95
26 33 6 217 74 231 85 6 5 16 8 20 7 12 -4 234 107 315 157 131 81 239 156
239 166 0 5 7 9 15 9 7 0 18 6 22 13 4 7 17 20 29 28 26 18 152 128 173 151 8
10 42 46 74 80 32 34 84 93 115 132 32 39 60 73 64 74 5 2 8 10 8 18 0 8 5 14
11 14 5 0 7 4 4 10 -3 5 -2 10 3 10 9 0 67 86 138 205 41 69 128 249 155 321
12 32 26 70 32 84 6 14 11 30 13 35 1 6 12 39 24 75 21 65 44 152 54 203 14
68 16 79 21 105 3 15 8 50 11 77 10 74 10 74 17 81 3 4 2 14 -3 24 -5 10 -6
20 -3 24 10 9 13 60 13 221 0 124 -6 280 -10 280 -3 0 -8 34 -13 87 -6 61 -40
228 -61 296 -7 26 -15 52 -16 57 -4 15 -7 26 -21 70 -7 22 -13 42 -14 45 0 5
-38 101 -63 160 -21 52 -115 244 -121 250 -3 3 -17 26 -31 53 -13 26 -28 47
-31 47 -4 0 -10 11 -13 25 -4 14 -11 25 -16 25 -6 0 -10 5 -10 10 0 6 -33 55
-73 108 -78 105 -113 146 -208 248 -80 87 -308 284 -327 284 -6 0 -12 4 -14 9
-4 10 -183 127 -248 162 -25 13 -48 28 -51 32 -3 5 -8 8 -10 7 -2 -1 -47 18
-99 43 -52 24 -113 50 -135 57 -22 7 -42 16 -45 19 -4 5 -99 38 -132 47 -5 1
-10 3 -13 4 -6 3 -6 3 -55 14 -19 5 -39 11 -45 14 -5 4 -14 7 -20 8 -5 1 -53
11 -105 22 -52 11 -115 23 -140 26 -25 3 -57 8 -71 11 -14 3 -54 6 -88 7 -33
2 -61 6 -61 10 0 7 -47 1 -62 -8 -4 -3 -8 -2 -8 3 0 4 -54 8 -120 8 -66 0
-120 -2 -120 -5z"/>
</g>
</svg>
